<?xml version="1.0" encoding="UTF-8" standalone="no"?><!DOCTYPE svg PUBLIC "-//W3C//DTD SVG 1.1//EN" "http://www.w3.org/Graphics/SVG/1.1/DTD/svg11.dtd"><svg width="100%" height="100%" viewBox="0 0 2343 2652" version="1.1" xmlns="http://www.w3.org/2000/svg" xmlns:xlink="http://www.w3.org/1999/xlink" xml:space="preserve" xmlns:serif="http://www.serif.com/" style="fill-rule:evenodd;clip-rule:evenodd;stroke-linejoin:round;stroke-miterlimit:2;"><path d="M2342.09,409.561l0.001,195.795l-0,1636.26c-0,226.043 -183.518,409.561 -409.561,409.561l-769.041,-0c-153.951,-0 -300.959,-29.966 -435.504,-84.377c-426.655,-172.545 -727.984,-590.916 -727.984,-1079.11l0,-279.196l0.514,0c-0.342,-11.631 -0.514,-23.303 -0.514,-35.016c0,-594.265 442.692,-1085.95 1016,-1162.98c51.512,-6.921 104.078,-10.495 157.473,-10.495l759.052,0c226.043,0 409.56,183.518 409.56,409.561Zm-727.983,1403.42l-0,-960.845l0.02,-2.229l-0.02,-2.229c-1.085,-61.022 -46.642,-111.274 -105.609,-119.694c-5.728,-0.818 -11.583,-1.241 -17.536,-1.241c-5.952,-0 -11.807,0.423 -17.535,1.241l-264.629,0c-265.267,0 -480.649,215.281 -480.813,480.509l0,0.304l0,244.737c0,267.553 217.219,484.772 484.773,484.772l274.072,0c1.372,0.046 2.75,0.069 4.132,0.069c1.383,-0 2.761,-0.023 4.133,-0.069c65.328,-2.158 117.846,-55.294 119.012,-120.867l0.02,-2.229l-0.02,-2.229Z" style="fill:#6637ff;"/></svg>