<?xml version="1.0" encoding="UTF-8" standalone="no"?><!DOCTYPE svg PUBLIC "-//W3C//DTD SVG 1.1//EN" "http://www.w3.org/Graphics/SVG/1.1/DTD/svg11.dtd"><svg width="100%" height="100%" viewBox="0 0 6990 1867" version="1.1" xmlns="http://www.w3.org/2000/svg" xmlns:xlink="http://www.w3.org/1999/xlink" xml:space="preserve" xmlns:serif="http://www.serif.com/" style="fill-rule:evenodd;clip-rule:evenodd;stroke-linejoin:round;stroke-miterlimit:2;"><path d="M3755.59,248.251c444.096,0 804.645,360.549 804.645,804.645c-0,444.095 -360.549,804.644 -804.645,804.644c-444.095,-0 -804.644,-360.549 -804.644,-804.644c-0,-444.096 360.549,-804.645 804.644,-804.645Zm0,441.893c-200.208,0 -362.751,162.544 -362.751,362.752c-0,200.207 162.543,362.751 362.751,362.751c200.208,-0 362.752,-162.544 362.752,-362.751c-0,-200.208 -162.544,-362.752 -362.752,-362.752Z" style="fill:#6637ff;"/><path d="M1490.24,1738.93l0,-1121.69l0.005,-119.816c0.024,-129.387 99.1,-235.809 225.462,-247.495l483.892,-0.146c32.411,0 64.319,2.169 95.588,6.371c348.005,46.759 616.723,345.216 616.723,705.941c0,7.109 -0.104,14.195 -0.311,21.255l0.311,-0l0,755.578c0,66.309 -53.834,120.144 -120.143,120.144l-201.693,0c-64.764,0 -117.629,-51.355 -120.057,-115.53l0,-760.008l0,-0.184c-0.099,-160.996 -130.838,-291.674 -291.857,-291.674l-246.027,0l0,1054.99c-3.993,62.71 -56.188,112.407 -119.898,112.407l-201.851,0c-66.309,0 -120.144,-53.835 -120.144,-120.144Z" style="fill:#6637ff;"/><path d="M5565.35,1544.91l-0,194.019c-0,66.309 -53.835,120.144 -120.144,120.144l-137.258,0c-360.552,0 -658.088,-271.953 -698.495,-621.747c-1.842,-15.946 -3.15,-32.055 -3.905,-48.306l-0,-1068.88c-0,-66.309 53.835,-120.144 120.144,-120.144l201.973,0c63.124,0 114.944,48.787 119.776,110.68l-0,137.571l401.795,0c64.447,2.129 116.114,55.117 116.114,120.077l-0,202.244c-0,62.333 -47.572,113.642 -108.358,119.572l-409.551,0l-0,430.903c-0,167.657 136.117,303.774 303.774,303.774l97.574,-0c64.654,1.898 116.561,54.981 116.561,120.091Z" style="fill:#6637ff;"/><path d="M6574.98,771.974c0.008,0.45 0.012,0.901 0.012,1.353c-0,0.452 -0.004,0.903 -0.012,1.353l-0,-2.706Zm-85.394,-72.656c3.477,-0.496 7.031,-0.753 10.644,-0.753c3.613,-0 7.167,0.257 10.644,0.753l-21.288,0Z" style="fill:#6637ff;"/><path d="M6989.74,506.032l0,118.85l0,993.225c0,137.21 -111.397,248.607 -248.607,248.607l-466.815,0c-93.45,0 -182.685,-18.189 -264.355,-51.218c-258.984,-104.736 -441.893,-358.691 -441.893,-655.03l-0,-169.474l0.312,-0c-0.208,-7.06 -0.312,-14.146 -0.312,-21.255c-0,-360.725 268.718,-659.182 616.724,-705.941c31.268,-4.202 63.176,-6.371 95.587,-6.371l460.752,0c137.21,0 248.607,111.397 248.607,248.607Zm-441.893,851.89l0,-583.242l0.012,-1.353l-0.012,-1.353c-0.659,-37.041 -28.312,-67.545 -64.106,-72.656c-3.477,-0.496 -7.03,-0.753 -10.644,-0.753c-3.613,-0 -7.167,0.257 -10.644,0.753l-160.632,0c-161.02,0 -291.758,130.677 -291.858,291.674l-0,0.184l-0,148.558c-0,162.407 131.854,294.261 294.261,294.261l166.365,0c0.833,0.028 1.669,0.041 2.508,0.041c0.84,0 1.676,-0.013 2.509,-0.041c39.654,-1.31 71.533,-33.564 72.241,-73.368l0.012,-1.352l-0.012,-1.353Z" style="fill:#6637ff;"/><path d="M1421.67,506.032l0,118.85l0,993.225c0,137.21 -111.397,248.607 -248.607,248.607l-466.815,0c-93.45,0 -182.685,-18.189 -264.355,-51.218c-258.983,-104.736 -441.893,-358.691 -441.893,-655.03l0,-169.474l0.312,-0c-0.208,-7.06 -0.312,-14.146 -0.312,-21.255c0,-360.725 268.718,-659.182 616.724,-705.941c31.268,-4.202 63.176,-6.371 95.588,-6.371l460.751,0c137.21,0 248.607,111.397 248.607,248.607Zm-441.893,851.89l0,-583.242l0.012,-1.353l-0.012,-1.353c-0.658,-37.041 -28.312,-67.545 -64.105,-72.656c-3.477,-0.496 -7.031,-0.753 -10.645,-0.753c-3.613,-0 -7.167,0.257 -10.644,0.753l-160.632,0c-161.019,0 -291.758,130.677 -291.858,291.674l0,0.184l0,148.558c0,162.407 131.854,294.261 294.262,294.261l166.364,0c0.833,0.028 1.669,0.041 2.508,0.041c0.84,0 1.676,-0.013 2.509,-0.041c39.654,-1.31 71.533,-33.564 72.241,-73.368l0.012,-1.352l-0.012,-1.353Z" style="fill:#6637ff;"/></svg>